
<svg width="59px" height="45px" viewBox="0 0 59 45" version="1.1" xmlns="http://www.w3.org/2000/svg" xmlns:xlink="http://www.w3.org/1999/xlink">
    <!-- Generator: Sketch 50.2 (55047) - http://www.bohemiancoding.com/sketch -->
    <desc>Created with Sketch.</desc>
    <defs></defs>
    <g id="Page-1" stroke="none" stroke-width="1" fill="none" fill-rule="evenodd" stroke-linecap="round" stroke-linejoin="round">
        <g id="Static-Design" transform="translate(-610.000000, -1424.000000)" stroke-width="1.5">
            <g id="APIS" transform="translate(-1.000000, 1140.000000)">
                <g id="Dashboard..." transform="translate(611.000000, 284.000000)">
                    <path d="M14.45,0.74999997 L55.87,0.75 C56.4631252,0.74990284 57.0313952,0.988224286 57.4470199,1.41137157 C57.8626446,1.83451885 58.0907353,2.40697198 58.08,3 L58.0803625,23.49" id="Shape" stroke="#28B8FF"></path>
                    <path d="M58.08,27.78 L58.08,32.37 C58.0800124,33.5921775 57.0921651,34.5844947 55.87,34.59 L3,34.59 C2.40603874,34.5980272 1.83363534,34.3676836 1.41079347,33.9504796 C0.987951597,33.5332756 0.749945759,32.9640155 0.75,32.37 L0.75,3 C0.739037778,2.39996944 0.972568806,1.82128177 1.39692529,1.39692529 C1.82128177,0.972568806 2.39996944,0.739037778 3,0.75 L9.77,0.75" id="Shape" stroke="#28B8FF"></path>
                    <path d="M29.42,34.59 L29.42,43.63" id="Shape" stroke="#28B8FF" fill="#FFFFFF" fill-rule="nonzero"></path>
                    <path d="M22.93,43.63 L35.91,43.63" id="Shape" stroke="#28B8FF" fill="#FFFFFF" fill-rule="nonzero"></path>
                    <rect id="Rectangle-path" stroke="#036EE2" fill="#FFFFFF" fill-rule="nonzero" x="7.42" y="20.91" width="3.25" height="6.49"></rect>
                    <rect id="Rectangle-path" stroke="#036EE2" fill="#FFFFFF" fill-rule="nonzero" x="14.99" y="15.5" width="3.25" height="11.9"></rect>
                    <rect id="Rectangle-path" stroke="#036EE2" fill="#FFFFFF" fill-rule="nonzero" x="22.57" y="9.01" width="3.25" height="18.39"></rect>
                    <path d="M34.46,10.1 L50.69,10.1" id="Shape" stroke="#79F2FF"></path>
                    <path d="M34.46,15.5 L50.69,15.5" id="Shape" stroke="#79F2FF"></path>
                    <path d="M34.46,20.91 L50.69,20.91" id="Shape" stroke="#79F2FF"></path>
                    <path d="M34.46,26.32 L44.2,26.32" id="Shape" stroke="#79F2FF"></path>
                    <path d="M5.26,27.4 L27.97,27.4" id="Shape" stroke="#036EE2" fill="#FFFFFF" fill-rule="nonzero"></path>
                </g>
            </g>
        </g>
    </g>
</svg>