
<svg width="67px" height="43px" viewBox="0 0 67 43" version="1.1" xmlns="http://www.w3.org/2000/svg" xmlns:xlink="http://www.w3.org/1999/xlink">
    <!-- Generator: Sketch 50.2 (55047) - http://www.bohemiancoding.com/sketch -->
    <desc>Created with Sketch.</desc>
    <defs></defs>
    <g id="Page-1" stroke="none" stroke-width="1" fill="none" fill-rule="evenodd" stroke-linecap="round" stroke-linejoin="round">
        <g id="Static-Design" transform="translate(-131.000000, -1547.000000)" stroke-width="1.5">
            <g id="APIS" transform="translate(-1.000000, 1140.000000)">
                <g id="Easily..." transform="translate(132.000000, 407.000000)">
                    <path d="M57.91,13.94 L57.91,9.44" id="Shape" stroke="#79F2FF"></path>
                    <path d="M9.91,31.94 L9.91,27.44" id="Shape" stroke="#79F2FF"></path>
                    <polyline id="Shape" stroke="#036EE2" fill="#FFFFFF" fill-rule="nonzero" points="7.75 36.94 7.75 31.94 12.75 31.94 12.75 36.94 10.29 36.94"></polyline>
                    <polyline id="Shape" stroke="#036EE2" fill="#FFFFFF" fill-rule="nonzero" points="55.75 3.94 60.75 3.94 60.75 8.94 55.75 8.94 55.75 6.48"></polyline>
                    <path d="M45.75,20.44 L52.75,20.44" id="Shape" stroke="#79F2FF"></path>
                    <path d="M20.75,20.44 L13.75,20.44" id="Shape" stroke="#79F2FF"></path>
                    <polyline id="Shape" stroke="#036EE2" fill="#FFFFFF" fill-rule="nonzero" points="59.11 26.94 52.75 26.94 52.75 13.94 65.75 13.94 65.75 26.94 63.02 26.94"></polyline>
                    <polyline id="Shape" stroke="#036EE2" fill="#FFFFFF" fill-rule="nonzero" points="0.75 17.49 0.75 13.94 13.75 13.94 13.75 26.94 0.75 26.94 0.75 20.55"></polyline>
                    <rect id="Rectangle-path" stroke="#28B8FF" fill="#FFFFFF" fill-rule="nonzero" x="20.75" y="0.75" width="25" height="41.38" rx="2.26"></rect>
                    <path d="M41.14,34.44 L45.75,34.44" id="Shape" stroke="#28B8FF" fill="#FFFFFF" fill-rule="nonzero"></path>
                    <path d="M20.75,34.44 L36.14,34.44" id="Shape" stroke="#28B8FF" fill="#FFFFFF" fill-rule="nonzero"></path>
                </g>
            </g>
        </g>
    </g>
</svg>