<svg width="409px" height="341px" viewBox="0 0 409 341" version="1.1" xmlns="http://www.w3.org/2000/svg" xmlns:xlink="http://www.w3.org/1999/xlink">
    <!-- Generator: Sketch 50.2 (55047) - http://www.bohemiancoding.com/sketch -->
    <desc>Created with Sketch.</desc>
    <defs></defs>
    <g id="Page-1" stroke="none" stroke-width="1" fill="none" fill-rule="evenodd">
        <g id="Static-Design" transform="translate(-105.000000, -123.000000)">
            <g id="Home" transform="translate(-1.000000, -1.000000)">
                <g id="graphic" transform="translate(106.000000, 124.000000)">
                    <polyline id="Shape" stroke="#0595D6" stroke-width="1.5" stroke-linecap="round" stroke-linejoin="round" points="204.61 219.28 204.61 246.83 215.53 257.75"></polyline>
                    <circle id="Oval" stroke="#0595D6" stroke-width="1.5" stroke-linecap="round" stroke-linejoin="round" cx="219.81" cy="262.98" r="5.7"></circle>
                    <polyline id="Shape" stroke="#0595D6" stroke-width="1.5" stroke-linecap="round" stroke-linejoin="round" points="193.21 258.23 204.61 246.83 204.61 290.53"></polyline>
                    <circle id="Oval" stroke="#0595D6" stroke-width="1.5" stroke-linecap="round" stroke-linejoin="round" cx="189.41" cy="262.98" r="5.7"></circle>
                    <path d="M187,297.07 C196.450453,288.432099 210.951242,288.50324 220.316486,297.233452 C229.681731,305.963664 230.769212,320.423792 222.815044,330.456519 C214.860875,340.489246 200.533833,342.728399 189.897752,335.601115 C179.26167,328.473832 175.885158,314.371452 182.14,303.2" id="Shape" stroke="#FFFFFF" stroke-width="1.5" stroke-linecap="round" stroke-linejoin="round"></path>
                    <polyline id="Shape" stroke="#0595D6" stroke-width="1.5" stroke-linecap="round" stroke-linejoin="round" points="170.34 135.04 154.09 118.78 154.09 101.44 131.63 78.99"></polyline>
                    <circle id="Oval" stroke="#0595D6" stroke-width="1.5" stroke-linecap="round" stroke-linejoin="round" cx="127.72" cy="74.84" r="5.7"></circle>
                    <polyline id="Shape" stroke="#0595D6" stroke-width="1.5" stroke-linecap="round" stroke-linejoin="round" points="238.89 135.04 255.14 118.78 255.14 101.44 277.6 78.99"></polyline>
                    <circle id="Oval" stroke="#0595D6" stroke-width="1.5" stroke-linecap="round" stroke-linejoin="round" cx="281.51" cy="74.84" r="5.7"></circle>
                    <polyline id="Shape" stroke="#0595D6" stroke-width="1.5" stroke-linecap="round" stroke-linejoin="round" points="238.89 205.01 255.14 221.26 255.14 238.6 277.6 261.06"></polyline>
                    <circle id="Oval" stroke="#0595D6" stroke-width="1.5" stroke-linecap="round" stroke-linejoin="round" cx="281.51" cy="265.2" r="5.7"></circle>
                    <polyline id="Shape" stroke="#0595D6" stroke-width="1.5" stroke-linecap="round" stroke-linejoin="round" points="170.34 205.01 154.09 221.26 154.09 238.6 131.63 261.06"></polyline>
                    <circle id="Oval" stroke="#0595D6" stroke-width="1.5" stroke-linecap="round" stroke-linejoin="round" cx="127.72" cy="265.2" r="5.7"></circle>
                    <path d="M160.84,163.39 L160.84,152.22 L186.45,126.62 L222.65,126.62 L248.25,152.22 L248.25,188.43 L242.49,194.19 M235.44,201.24 L222.65,214 L186.45,214 L160.84,188.4 L160.84,174" id="Shape" stroke="#0595D6" stroke-width="1.5" stroke-linecap="round" stroke-linejoin="round"></path>
                    <polyline id="Shape" stroke="#0595D6" stroke-width="1.5" stroke-linecap="round" stroke-linejoin="round" points="204.55 121.4 204.55 93.84 193.62 82.92"></polyline>
                    <circle id="Oval" stroke="#0595D6" stroke-width="1.5" stroke-linecap="round" stroke-linejoin="round" cx="189.35" cy="77.69" r="5.7"></circle>
                    <polyline id="Shape" stroke="#0595D6" stroke-width="1.5" stroke-linecap="round" stroke-linejoin="round" points="215.95 82.44 204.55 93.84 204.55 50.14"></polyline>
                    <circle id="Oval" stroke="#0595D6" stroke-width="1.5" stroke-linecap="round" stroke-linejoin="round" cx="219.75" cy="77.69" r="5.7"></circle>
                    <path d="M187.35,42.11 C178.701977,32.5965006 178.814115,18.0351782 187.607632,8.65599742 C196.401149,-0.72318336 210.925035,-1.7726693 220.975626,6.24484928 C231.026217,14.2623679 233.230641,28.656297 226.040195,39.3142733 C218.849748,49.9722496 204.677468,53.3175696 193.48,47" id="Shape" stroke="#FFFFFF" stroke-width="1.5" stroke-linecap="round" stroke-linejoin="round"></path>
                    <polyline id="Shape" stroke="#0595D6" stroke-width="1.5" stroke-linecap="round" stroke-linejoin="round" points="285.82 71.12 292.25 64.68 308.11 64.68"></polyline>
                    <polyline id="Shape" stroke="#FFFFFF" stroke-width="1.5" stroke-linecap="round" stroke-linejoin="round" points="351.82 67.98 363.22 67.98 363.22 91.34 339.86 91.34 339.86 67.98 346.34 67.98"></polyline>
                    <polyline id="Shape" stroke="#FFFFFF" stroke-width="1.5" stroke-linecap="round" stroke-linejoin="round" points="321.01 75.77 309.06 75.77 309.06 52.41 332.42 52.41 332.42 75.77 326.66 75.77"></polyline>
                    <polyline id="Shape" stroke="#FFFFFF" stroke-width="1.5" stroke-linecap="round" stroke-linejoin="round" points="363.22 56.79 363.22 60.8 339.86 60.8 339.86 37.44 363.22 37.44 363.22 50.79"></polyline>
                    <polyline id="Shape" stroke="#FFFFFF" stroke-width="1.5" stroke-linecap="round" stroke-linejoin="round" points="321.41 70.09 314.76 70.09 314.76 64.39"></polyline>
                    <polyline id="Shape" stroke="#0595D6" stroke-width="1.5" stroke-linecap="round" stroke-linejoin="round" points="123.79 269.54 117.36 275.97 101.5 275.97"></polyline>
                    <polyline id="Shape" stroke="#FFFFFF" stroke-width="1.5" stroke-linecap="round" stroke-linejoin="round" points="57.79 272.67 46.39 272.67 46.39 249.32 69.75 249.32 69.75 272.67 63.27 272.67"></polyline>
                    <polyline id="Shape" stroke="#FFFFFF" stroke-width="1.5" stroke-linecap="round" stroke-linejoin="round" points="88.59 264.89 100.55 264.89 100.55 288.24 77.19 288.24 77.19 264.89 82.95 264.89"></polyline>
                    <polyline id="Shape" stroke="#FFFFFF" stroke-width="1.5" stroke-linecap="round" stroke-linejoin="round" points="46.39 283.87 46.39 279.86 69.75 279.86 69.75 303.21 46.39 303.21 46.39 289.86"></polyline>
                    <polyline id="Shape" stroke="#FFFFFF" stroke-width="1.5" stroke-linecap="round" stroke-linejoin="round" points="88.2 270.56 94.85 270.56 94.85 276.26"></polyline>
                    <polyline id="Shape" stroke="#0595D6" stroke-width="1.5" stroke-linecap="round" stroke-linejoin="round" points="253.48 170.02 325.21 170.02 335.27 159.96 335.27 145.15 347.06 145.15"></polyline>
                    <polyline id="Shape" stroke="#0595D6" stroke-width="1.5" stroke-linecap="round" stroke-linejoin="round" points="325.21 169.85 335.27 179.91 335.27 194.73 347.06 194.73"></polyline>
                    <circle id="Oval" stroke="#0595D6" stroke-width="1.5" stroke-linecap="round" stroke-linejoin="round" cx="352.77" cy="145.15" r="5.7"></circle>
                    <circle id="Oval" stroke="#0595D6" stroke-width="1.5" stroke-linecap="round" stroke-linejoin="round" cx="352.77" cy="194.56" r="5.7"></circle>
                    <path d="M278.74,170.02 L367.02,170.02" id="Shape" stroke="#0595D6" stroke-width="1.5" stroke-linecap="round" stroke-linejoin="round"></path>
                    <ellipse id="Oval" stroke="#FFFFFF" stroke-width="1.5" stroke-linecap="round" stroke-linejoin="round" cx="387.92" cy="158.59" rx="19.95" ry="5.93"></ellipse>
                    <path d="M407.87,169.38 C407.87,172.65 398.94,175.31 387.92,175.31 C376.9,175.31 368,172.65 368,169.38" id="Shape" stroke="#FFFFFF" stroke-width="1.5" stroke-linecap="round" stroke-linejoin="round"></path>
                    <path d="M407.87,159.13 L407.87,180.13 C407.87,183.41 398.94,186.06 387.92,186.06 C376.9,186.06 368,183.44 368,180.16 L368,179.62" id="Shape" stroke="#FFFFFF" stroke-width="1.5" stroke-linecap="round" stroke-linejoin="round"></path>
                    <path d="M367.97,159.13 L367.97,179.62" id="Shape" stroke="#FFFFFF" stroke-width="1.5" stroke-linecap="round" stroke-linejoin="round"></path>
                    <polyline id="Shape" stroke="#0595D6" stroke-width="1.5" stroke-linecap="round" stroke-linejoin="round" points="155.14 170.02 83.41 170.02 73.35 159.96 73.35 145.15 61.56 145.15"></polyline>
                    <polyline id="Shape" stroke="#0595D6" stroke-width="1.5" stroke-linecap="round" stroke-linejoin="round" points="83.41 169.85 73.35 179.91 73.35 194.73 61.56 194.73"></polyline>
                    <circle id="Oval" stroke="#0595D6" stroke-width="1.5" stroke-linecap="round" stroke-linejoin="round" cx="55.86" cy="145.15" r="5.7"></circle>
                    <circle id="Oval" stroke="#0595D6" stroke-width="1.5" stroke-linecap="round" stroke-linejoin="round" cx="55.86" cy="194.56" r="5.7"></circle>
                    <path d="M91.88,170.02 L41.6,170.02" id="Shape" stroke="#0595D6" stroke-width="1.5" stroke-linecap="round" stroke-linejoin="round"></path>
                    <ellipse id="Oval" stroke="#FFFFFF" stroke-width="1.5" stroke-linecap="round" stroke-linejoin="round" cx="20.7" cy="158.59" rx="19.95" ry="5.93"></ellipse>
                    <path d="M0.75,169.38 C0.75,172.65 9.68,175.31 20.75,175.31 C31.82,175.31 40.75,172.65 40.75,169.38" id="Shape" stroke="#FFFFFF" stroke-width="1.5" stroke-linecap="round" stroke-linejoin="round"></path>
                    <path d="M0.75,159.13 L0.75,180.13 C0.75,183.41 9.68,186.06 20.75,186.06 C31.82,186.06 40.75,183.41 40.75,180.13 L40.75,179.59" id="Shape" stroke="#FFFFFF" stroke-width="1.5" stroke-linecap="round" stroke-linejoin="round"></path>
                    <path d="M40.65,159.13 L40.65,179.62" id="Shape" stroke="#FFFFFF" stroke-width="1.5" stroke-linecap="round" stroke-linejoin="round"></path>
                    <path d="M4.55,166.05 L4.55,168.9" id="Shape" stroke="#FFFFFF" stroke-width="1.5" stroke-linecap="round" stroke-linejoin="round"></path>
                    <path d="M4.55,177.45 L4.55,180.3" id="Shape" stroke="#FFFFFF" stroke-width="1.5" stroke-linecap="round" stroke-linejoin="round"></path>
                    <polygon id="Shape" stroke="#FFFFFF" stroke-width="1.5" stroke-linecap="round" stroke-linejoin="round" points="253.48 190.59 224.82 219.26 184.28 219.26 155.62 190.59 155.62 150.06 184.28 121.4 224.82 121.4 253.48 150.06"></polygon>
                    <path d="M287.72,266.08 L304.31,266.08" id="Shape" stroke="#0595D6" stroke-width="1.5" stroke-linecap="round" stroke-linejoin="round"></path>
                    <polyline id="Shape" stroke="#FFFFFF" stroke-width="1.5" stroke-linecap="round" stroke-linejoin="round" points="304.52 276.29 309.81 265.26 316.21 277.67 320.46 256.81 326.31 273.99 330.03 267.1 333.68 270.78 339.59 255.62 351.82 264.35"></polyline>
                    <rect id="Rectangle-path" stroke="#FFFFFF" stroke-width="1.5" stroke-linecap="round" stroke-linejoin="round" x="304.29" y="248.49" width="47.78" height="35.84" rx="3.36"></rect>
                    <path d="M105.3,74.15 L121.89,74.15" id="Shape" stroke="#0595D6" stroke-width="1.5" stroke-linecap="round" stroke-linejoin="round"></path>
                    <polyline id="Shape" stroke="#FFFFFF" stroke-width="1.5" stroke-linecap="round" stroke-linejoin="round" points="57.49 83.42 62.78 72.39 69.18 84.8 73.43 63.94 79.28 81.12 83 74.23 86.65 77.91 92.56 62.74 104.79 71.47"></polyline>
                    <rect id="Rectangle-path" stroke="#FFFFFF" stroke-width="1.5" stroke-linecap="round" stroke-linejoin="round" x="57.26" y="55.62" width="47.78" height="35.84" rx="3.36"></rect>
                    <polyline id="Shape" stroke="#FFFFFF" stroke-width="1.5" stroke-linecap="round" stroke-linejoin="round" points="193.23 28.62 189.87 28.62 189.87 24.93 189.87 21.23 193.23 21.23"></polyline>
                    <path d="M192.56,24.93 L189.87,24.93" id="Shape" stroke="#FFFFFF" stroke-width="1.5" stroke-linecap="round" stroke-linejoin="round"></path>
                    <polyline id="Shape" stroke="#FFFFFF" stroke-width="1.5" stroke-linecap="round" stroke-linejoin="round" points="196.21 28.58 196.21 21.23 199.23 21.23 199.23 24.94 196.65 24.94"></polyline>
                    <polyline id="Shape" stroke="#FFFFFF" stroke-width="1.5" stroke-linecap="round" stroke-linejoin="round" points="205.97 21.06 202.75 21.06 202.75 28.81 205.97 28.81"></polyline>
                    <polyline id="Shape" stroke="#FFFFFF" stroke-width="1.5" stroke-linecap="round" stroke-linejoin="round" points="196.21 24.94 200.03 24.94 200.03 28.6"></polyline>
                    <polyline id="Shape" stroke="#FFFFFF" stroke-width="1.5" stroke-linecap="round" stroke-linejoin="round" points="208.26 21.07 212.11 21.07 208.5 28.85"></polyline>
                    <polyline id="Shape" stroke="#FFFFFF" stroke-width="1.5" stroke-linecap="round" stroke-linejoin="round" points="214.16 21.04 218.02 21.04 218.02 24.94 214.16 24.94 214.16 28.85 218.02 28.85"></polyline>
                    <polyline id="Shape" stroke="#FFFFFF" stroke-width="1.5" stroke-linecap="round" stroke-linejoin="round" points="219.94 21.04 221.87 21.04 221.87 28.85"></polyline>
                    <polyline id="Shape" stroke="#FFFFFF" stroke-width="1.5" stroke-linecap="round" stroke-linejoin="round" points="192.26 319.57 188.78 319.57 188.78 315.74 188.78 311.91 192.26 311.91"></polyline>
                    <path d="M191.56,315.74 L188.78,315.74" id="Shape" stroke="#FFFFFF" stroke-width="1.5" stroke-linecap="round" stroke-linejoin="round"></path>
                    <polyline id="Shape" stroke="#FFFFFF" stroke-width="1.5" stroke-linecap="round" stroke-linejoin="round" points="195.35 319.53 195.35 311.91 198.48 311.91 198.48 315.75 195.8 315.75"></polyline>
                    <polyline id="Shape" stroke="#FFFFFF" stroke-width="1.5" stroke-linecap="round" stroke-linejoin="round" points="205.48 311.73 202.13 311.73 202.13 319.77 205.48 319.77"></polyline>
                    <polyline id="Shape" stroke="#FFFFFF" stroke-width="1.5" stroke-linecap="round" stroke-linejoin="round" points="195.35 315.75 199.31 315.75 199.31 319.55"></polyline>
                    <rect id="Rectangle-path" stroke="#FFFFFF" stroke-width="1.5" stroke-linecap="round" stroke-linejoin="round" x="215.13" y="311.73" width="4.74" height="8.04"></rect>
                    <polyline id="Shape" stroke="#FFFFFF" stroke-width="1.5" stroke-linecap="round" stroke-linejoin="round" points="207.87 311.75 211.87 311.75 211.87 315.75 207.87 315.75 207.87 319.75 211.87 319.75"></polyline>
                    <path d="M215.14,311.75 L219.87,319.69" id="Shape" stroke="#FFFFFF" stroke-width="1.5" stroke-linecap="round" stroke-linejoin="round"></path>
                    <path d="M205.12,138.23 L224.41,170.23 L205.12,181.63 L185.83,170.23 L205.12,138.23 Z M205.12,136.73 C204.59498,136.732553 204.109507,137.009424 203.84,137.46 L184.55,169.46 C184.122459,170.175279 184.35518,171.10169 185.07,171.53 L204.36,182.93 C204.592767,183.058813 204.853979,183.127553 205.12,183.13 C205.390856,183.130326 205.656813,183.057792 205.89,182.92 L225.17,171.53 C225.51749,171.325162 225.769309,170.990601 225.87,170.6 C225.96094,170.212232 225.900118,169.804365 225.7,169.46 L206.41,137.46 C206.137226,137.007842 205.648064,136.73103 205.12,136.73 Z" id="Shape" fill="#FFFFFF" fill-rule="nonzero"></path>
                    <polyline id="Shape" stroke="#FFFFFF" stroke-width="1.5" stroke-linecap="square" stroke-linejoin="round" points="185.83 170.24 205.12 161.47 224.41 170.24"></polyline>
                    <path d="M205.12,181.64 L205.12,138.23" id="Shape" stroke="#FFFFFF" stroke-width="1.5" stroke-linecap="square" stroke-linejoin="round"></path>
                    <path d="M224.43,176.9 L205.12,201.08 L185.83,176.9 L205.12,188.3 L224.43,176.9 Z M185.83,175.4 C185.252515,175.399588 184.726075,175.730728 184.476387,176.251444 C184.226699,176.77216 184.298109,177.389973 184.66,177.84 L204,202 C204.286665,202.355155 204.718588,202.561593 205.175,202.561593 C205.631412,202.561593 206.063335,202.355155 206.35,202 L225.61,177.86 C225.854138,177.58472 225.986164,177.227892 225.98,176.86 C225.980018,176.035462 225.314519,175.365497 224.49,175.36 L224.29,175.36 C224.077503,175.387222 223.873092,175.458766 223.69,175.57 L205.17,186.51 L186.64,175.56 C186.409927,175.423478 186.147527,175.350973 185.88,175.35 L185.83,175.4 Z" id="Shape" fill="#FFFFFF" fill-rule="nonzero"></path>
                </g>
            </g>
        </g>
    </g>
</svg>